<?xml version="1.0" standalone="no"?>
<!DOCTYPE svg PUBLIC "-//W3C//DTD SVG 20010904//EN" "http://www.w3.org/TR/2001/REC-SVG-20010904/DTD/svg10.dtd">
<!-- Created using Krita: https://krita.org -->
<svg xmlns="http://www.w3.org/2000/svg" 
    xmlns:xlink="http://www.w3.org/1999/xlink"
    xmlns:krita="http://krita.org/namespaces/svg/krita"
    xmlns:sodipodi="http://sodipodi.sourceforge.net/DTD/sodipodi-0.dtd"
    width="230.4pt"
    height="290.8pt"
    viewBox="0 0 230.4 280.8">
<defs/>
<g id="group0" transform="matrix(1.00000000541777 0 0 1.00000000541777 31.5304334855788 6.21564175476759)" fill="none">
  <g id="group01" transform="matrix(0.999999993990422 0 0 0.999999993990422 89.1915369548117 150.541580389641)" fill="none">
   <path id="shape0" transform="matrix(-0.461421776712493 0 0 0.485232120323712 67.665237029765 2.8802930682042)" fill="#59932b" fill-rule="evenodd" stroke="#000000" stroke-opacity="0" stroke-width="0" stroke-linecap="square" stroke-linejoin="bevel" d="M0 28.2243C8.73049 7.22035 18.3905 -2.06057 28.98 0.381554C24.9569 20.0242 32.5886 16.6881 0.53998 28.2816Z"/>
   <path id="shape01" transform="matrix(0.461421777085196 0 0 0.485232120715647 57.6117134726262 -2.54856331594056e-07)" fill="#59932b" fill-rule="evenodd" stroke="#000000" stroke-opacity="0" stroke-width="0" stroke-linecap="square" stroke-linejoin="bevel" d="M0 28.2243C8.73049 7.22035 18.3905 -2.06057 28.98 0.381554C24.9569 20.0242 32.5886 16.6881 0.53998 28.2816Z"/>
   <ellipse id="shape1" transform="matrix(0.461421777085196 0 0 0.485232120715647 27.5732350810977 10.2294465573137)" rx="72.72" ry="68.76" cx="72.72" cy="68.76" fill="#ef7204" fill-rule="evenodd" stroke="#000000" stroke-opacity="0" stroke-width="0" stroke-linecap="square" stroke-linejoin="bevel"/>
   <path id="shape2" transform="matrix(-0.461421777085196 0 0 0.485232120715647 58.2649974813969 13.9978543401755)" fill="none" stroke="#000000" stroke-opacity="0" stroke-width="0" stroke-linecap="square" stroke-linejoin="bevel" d="M0 0C20.4216 6.11145 33.4964 16.112 39.2244 30.0017"/>
   <path id="shape011" transform="matrix(0.559406494828051 0 0 0.560649934203242 41.4498428786317 33.9621756157043)" fill="#59932b" fill-rule="evenodd" stroke="#000000" stroke-opacity="0" stroke-width="0" stroke-linecap="square" stroke-linejoin="bevel" d="M0 28.2243C8.73049 7.22035 18.3905 -2.06057 28.98 0.381554C24.9569 20.0242 32.5886 16.6881 0.53998 28.2816Z"/>
   <path id="shape02" transform="matrix(0.60934956414781 0 0 0.620375362671463 93.0604754954795 17.5763087012131)" fill="#59932b" fill-rule="evenodd" stroke="#000000" stroke-opacity="0" stroke-width="0" stroke-linecap="square" stroke-linejoin="bevel" d="M0 28.2243C8.73049 7.22035 18.3905 -2.06057 28.98 0.381554C24.9569 20.0242 32.5886 16.6881 0.53998 28.2816Z"/>
   <path id="shape11" transform="matrix(0.99999988079072 0 0 0.99999988079072 64.1335423433125 53.7350887316404)" fill="#fa7d00" fill-rule="evenodd" stroke="#000000" stroke-opacity="0" stroke-width="0" stroke-linecap="square" stroke-linejoin="bevel" d="M0 50.148C38.3728 49.4331 70.5446 39.2515 69.4945 0C78.8687 23.0433 72.6114 38.3594 61.0757 50.6105C40.1548 64.5233 19.7963 64.3691 0 50.148Z"/>
   <ellipse id="shape111" transform="matrix(0.60934956414781 0 0 0.620375362671463 50.4345663102406 30.4002267266244)" rx="72.72" ry="68.76" cx="72.72" cy="68.76" fill="#ff7f00" fill-rule="evenodd" stroke="#000000" stroke-opacity="0" stroke-width="0" stroke-linecap="square" stroke-linejoin="bevel"/>
   <path id="shape03" transform="matrix(0.00703599788292968 -0.999975143369024 -0.999975143369024 -0.00703599788292968 108.935674422446 78.9944044794337)" fill="#e38737" fill-rule="evenodd" stroke="#000000" stroke-opacity="0" stroke-width="0" stroke-linecap="square" stroke-linejoin="bevel" d="M0 40.5691C24.9383 39.9907 45.8466 31.7539 45.1641 0C51.2564 18.6417 47.1898 31.0323 39.6928 40.9432C26.0964 52.1985 12.8655 52.0738 0 40.5691Z"/>
   <ellipse id="shape21" transform="matrix(0.559406494828051 0 0 0.560649934203242 0 49.3665597417393)" rx="72.72" ry="68.76" cx="72.72" cy="68.76" fill="#ff8c27" fill-rule="evenodd" stroke="#000000" stroke-opacity="0" stroke-width="0" stroke-linecap="square" stroke-linejoin="bevel"/>
  </g>
  <g id="group01" transform="matrix(1.00000001924593 0 0 1.00000001924593 -1.59127989718399e-06 60.3870301272419)" fill="none">
   <path id="shape011" transform="translate(55.5102899803703, 43.0895955169379)" fill="#d04b00" fill-rule="evenodd" stroke="#aa4b1a" stroke-width="0.72" stroke-linecap="square" stroke-linejoin="bevel" d="M21.5991 12.8828C42.933 18.9091 58.6396 22.3911 68.7191 23.3288C78.7985 24.2665 93.2628 25.5092 112.112 27.0571C86.2075 34.5949 73.7498 40.0683 74.7388 43.4774C75.7279 46.8865 81.1084 52.2764 90.8805 59.6472L96.48 59.0584L78.7445 43.6628C102.392 33.0284 116.163 27.3514 120.056 26.6318C123.949 25.9122 141.829 26.4698 173.694 28.3046L173.499 18.2483L122.74 18.6615C95.2923 21.0546 59.0451 15.9197 13.9984 3.25668C12.805 2.82496 -21.345 -8.18302 21.5991 12.8828Z"/>
   <path id="shape111" transform="translate(189.505496707802, 65.5956155533894)" fill="#d04b00" fill-rule="evenodd" stroke="#d04b00" stroke-width="0.2736" stroke-linecap="square" stroke-linejoin="bevel" d="M4.57206 1.19129L19.0556 27.0583L6.96313 56.6523L3.98335 55.5318L14.3605 27.4653L0.401306 1.52033C-0.769262 -0.390417 0.620988 -0.500098 4.57206 1.19129Z"/>
   <path id="shape211" transform="translate(137.714898772594, 65.7905515368981)" fill="#d04b00" fill-rule="evenodd" stroke="#d04b00" stroke-width="0.2736" stroke-linecap="square" stroke-linejoin="bevel" d="M48.4372 5.34666L35.8555 44.9551L3.68007 75.2248L0 75.2334L33.4502 42.2708L46.0992 0.0386974C46.1121 -0.290344 46.8914 1.47898 48.4372 5.34666Z"/>
   <path id="shape3" transform="matrix(-0.987779370202314 0.155858640449406 -0.155858640449406 -0.987779370202314 77.4794343647432 106.917498301646)" fill="#beb830" fill-rule="evenodd" stroke="#000000" stroke-opacity="0" stroke-width="0" stroke-linecap="square" stroke-linejoin="bevel" d="M5.11723 63.9867C-3.32737 46.7229 -1.32033 30.9782 11.1383 16.7526C23.597 2.52707 28.7505 -2.63872 26.5989 1.25525C34.7225 35.8024 27.562 56.7129 5.11723 63.9867Z"/>
   <path id="shape021" transform="matrix(-0.893776940478001 -0.448511762406331 0.448511762406331 -0.893776940478001 93.1900895127792 117.220394150811)" fill="#beb830" fill-rule="evenodd" stroke="#000000" stroke-opacity="0" stroke-width="0" stroke-linecap="square" stroke-linejoin="bevel" d="M5.11723 63.9867C-3.32737 46.7229 -1.32033 30.9782 11.1383 16.7526C23.597 2.52707 28.7505 -2.63872 26.5989 1.25525C34.7225 35.8024 27.562 56.7129 5.11723 63.9867Z"/>
   <path id="shape0111" transform="matrix(-0.938506938043398 0.34526040547891 -0.34526040547891 -0.938506938043398 145.211888350418 115.454922855714)" fill="#beb830" fill-rule="evenodd" stroke="#000000" stroke-opacity="0" stroke-width="0" stroke-linecap="square" stroke-linejoin="bevel" d="M5.11723 63.9867C-3.32737 46.7229 -1.32033 30.9782 11.1383 16.7526C23.597 2.52707 28.7505 -2.63872 26.5989 1.25525C34.7225 35.8024 27.562 56.7129 5.11723 63.9867Z"/>
   <path id="shape021" transform="matrix(-0.122929531277296 -0.992415412358659 0.992415412358659 -0.122929531277296 3.66787753835433 64.5441613409623)" fill="#beb830" fill-rule="evenodd" stroke="#000000" stroke-opacity="0" stroke-width="0" stroke-linecap="square" stroke-linejoin="bevel" d="M5.11723 63.9867C-3.32737 46.7229 -1.32033 30.9782 11.1383 16.7526C23.597 2.52707 28.7505 -2.63872 26.5989 1.25525C34.7225 35.8024 27.562 56.7129 5.11723 63.9867Z"/>
   <path id="shape031" transform="matrix(0.953357325249104 0.301844050365302 -0.301844050365302 0.953357325249104 203.828323077554 -2.02615069611056e-07)" fill="#beb830" fill-rule="evenodd" stroke="#000000" stroke-opacity="0" stroke-width="0" stroke-linecap="square" stroke-linejoin="bevel" d="M5.11723 63.9867C-3.32737 46.7229 -1.32033 30.9782 11.1383 16.7526C23.597 2.52707 28.7505 -2.63872 26.5989 1.25525C34.7225 35.8024 27.562 56.7129 5.11723 63.9867Z"/>
   <path id="shape04" transform="matrix(-0.746832216855548 -0.665012526358485 0.665012526358485 -0.746832216855548 156.340136889707 112.526573554028)" fill="#beb830" fill-rule="evenodd" stroke="#000000" stroke-opacity="0" stroke-width="0" stroke-linecap="square" stroke-linejoin="bevel" d="M5.11723 63.9867C-3.32737 46.7229 -1.32033 30.9782 11.1383 16.7526C23.597 2.52707 28.7505 -2.63872 26.5989 1.25525C34.7225 35.8024 27.562 56.7129 5.11723 63.9867Z"/>
   <path id="shape05" transform="matrix(-0.62211378288534 0.782926855773359 -0.782926855773359 -0.62211378288534 242.483749404252 96.1739863399528)" fill="#beb830" fill-rule="evenodd" stroke="#000000" stroke-opacity="0" stroke-width="0" stroke-linecap="square" stroke-linejoin="bevel" d="M5.11723 63.9867C-3.32737 46.7229 -1.32033 30.9782 11.1383 16.7526C23.597 2.52707 28.7505 -2.63872 26.5989 1.25525C34.7225 35.8024 27.562 56.7129 5.11723 63.9867Z"/>
  </g>
  <g id="group02" transform="matrix(1.00000000149757 0 0 1.00000000149757 20.6638505648471 3.33332252466789e-06)" fill="none">
   <path id="shape031" transform="matrix(0.999999902381386 0 0 0.999999902381386 49.952261215195 95.546289711477)" fill="#464646" stroke="#000000" stroke-opacity="0" stroke-width="0" stroke-linecap="square" stroke-linejoin="bevel" d="M26.9515 0.156351C21.3821 4.2263 15.1294 9.78005 13.9518 10.6233C12.1853 11.8882 11.2275 9.18232 7.59974 10.4642C5.96245 11.0429 3.42921 13.165 0 16.8308L9.10487 14.4739L4.0529 21.8344L12.0871 17.2403C16.9039 15.5564 20.8607 15.99 23.9579 18.5408C28.6035 22.3671 25.7505 16.6681 23.875 13.6963C22.6246 11.7152 20.5479 10.8291 17.6451 11.0384L33.2904 0.332412C33.3151 0.16642 28.6091 -0.213115 26.9515 0.156351Z"/>
   <path id="shape012" transform="matrix(0.999999920527145 0 0 0.999999920527145 17.1152482702635 -6.66664527670946e-06)" fill="#ff6000" fill-rule="evenodd" stroke="#ff6000" stroke-width="1.44" stroke-linecap="square" stroke-linejoin="bevel" d="M40.3271 34.108C40.5185 40.3778 68.9001 28.9556 113.229 84.9998C110.273 90.749 99.9376 98.5161 61.81 100.163C29.7779 101.546 10.1083 63.4077 6.55082 45.5564C3.9328 32.4191 -3.6452 13.3493 2.10226 8.2406C16.8037 -4.82698 29.3471 -2.2584 36.3118 15.2718C40.0148 24.5922 37.0999 30.9922 40.3271 34.108Z"/>
   <path id="shape12" transform="matrix(0.999999920527145 0 0 0.999999920527145 41.0993701350158 44.263508851954)" fill="#ff711f" fill-rule="evenodd" stroke="#ff6000" stroke-width="1.44" stroke-linecap="square" stroke-linejoin="bevel" d="M3.7121 22.7214C32.9952 45.9467 82.7231 43.2703 98.6268 28.4787C58.0156 15.2809 54.758 -0.492684 29.3344 0.0117971C15.5324 0.28567 -9.44262 12.288 3.7121 22.7214Z"/>
   <path id="shape22" transform="matrix(0.999999920527145 0 0 0.999999920527145 106.715044558325 84.9088754605513)" fill="#ff6e26" fill-rule="evenodd" stroke="#ff6000" stroke-width="1.4616" stroke-linecap="square" stroke-linejoin="bevel" d="M0 12.8456L55.1168 20.6416L44.5447 9.24088C33.5751 7.23941 26.632 4.15911 23.7152 0"/>
   <path id="shape31" transform="matrix(0.947043327454255 -0.321105554263205 0.321105554263205 0.947043327454255 0 14.6185939169193)" fill="#ffe600" fill-rule="evenodd" stroke="#000000" stroke-opacity="0" stroke-width="0" stroke-linecap="square" stroke-linejoin="bevel" d="M19.2783 0C9.00983 0.746915 4.06532 3.8837 0 6.58158C8.77898 8.37167 12.2026 7.70708 15.089 10.5136C17.1675 9.86115 18.5559 8.65877 19.2541 6.9065C17.9529 4.38183 17.961 2.07967 19.2783 0Z"/>
   <path id="shape4" transform="matrix(0.999896062468098 -0.0144119851192878 0.0144119851192878 0.999896062468098 25.1622595520512 6.58620401411315)" sodipodi:type="arc" sodipodi:rx="3.85853087481584" sodipodi:ry="3.72182198485743" sodipodi:cx="3.85953395112086" sodipodi:cy="3.72278952187233" sodipodi:start="5.9897328135807" sodipodi:end="5.99962063276378" sodipodi:arc-type="chord" d="M7.56397 2.6815C6.96776 0.708082 4.8259 -0.425487 2.78 0.149601C0.734091 0.72469 -0.441116 2.79066 0.155097 4.76408C0.751309 6.7375 2.89317 7.87107 4.93907 7.29598C6.98498 6.72089 8.16018 4.65492 7.56397 2.6815Z" fill="#080b14" fill-rule="evenodd" stroke="#ff6000" stroke-width="1.4616" stroke-linecap="square" stroke-linejoin="bevel"/>
   <path id="shape5" transform="matrix(0.999999920527145 0 0 0.999999920527145 63.1529854316661 97.8618416286355)" fill="#5e5452" fill-rule="evenodd" stroke="#000000" stroke-opacity="0" stroke-width="0" stroke-linecap="square" stroke-linejoin="bevel" d="M20.0487 0.311311C17.9254 6.74099 16.2321 10.2991 14.9686 10.9856C13.0734 12.0153 12.0458 9.81244 8.15364 10.8561C6.39702 11.3271 3.67914 13.0548 0 16.0392L9.76845 14.1204L4.34829 20.1126L12.968 16.3725C18.1359 15.0017 22.3812 15.3546 25.704 17.4313C30.6882 20.5463 27.6274 15.9067 25.6151 13.4873C24.2735 11.8744 22.0456 11.1532 18.9311 11.3235L22.6766 0.0628376C22.7031 -0.0722971 21.8271 0.0105274 20.0487 0.311311Z"/>
  </g>
 </g>
</svg>
