<?xml version="1.0" standalone="no"?>
<!DOCTYPE svg PUBLIC "-//W3C//DTD SVG 20010904//EN" "http://www.w3.org/TR/2001/REC-SVG-20010904/DTD/svg10.dtd">
<!-- Created using Krita: https://krita.org -->
<svg xmlns="http://www.w3.org/2000/svg" 
    xmlns:xlink="http://www.w3.org/1999/xlink"
    xmlns:krita="http://krita.org/namespaces/svg/krita"
    xmlns:sodipodi="http://sodipodi.sourceforge.net/DTD/sodipodi-0.dtd"
    width="70.4pt"
    height="100.8pt"
    viewBox="0 0 100.4 155.8">
<defs/>
<g id="group0" transform="matrix(0.999999995444628 0 0 0.999999995444628 2.26339836026771 -0.0617669342678234)" fill="none">
  <path id="shape0" transform="matrix(0.986194360168376 0.16559168004235 -0.16559168004235 0.986194360168376 12.6003842686305 73.7990643222356)" fill="#ff711f" fill-rule="evenodd" stroke="#ff711f" stroke-width="1.44" stroke-linecap="square" stroke-linejoin="bevel" d="M16.2485 0C17.3354 22.3143 6.96026 46.9244 0 76.0931L20.8253 63.2891C22.9729 35.4306 40.5206 35.791 47.7054 12.4918C55.6091 9.66827 45.1235 5.50434 16.2485 0Z"/>
  <path id="shape1" transform="matrix(0.999999960263572 0 0 0.999999960263572 66.1362568983731 50.1735079073035)" fill="#ff711f" fill-rule="evenodd" stroke="#ff711f" stroke-width="1.44" stroke-linecap="square" stroke-linejoin="bevel" d="M0.987998 7.0665C0.619228 2.54838 8.93282 -2.20689 15.6291 1.10762C21.0701 3.80078 15.8604 19.0289 0 46.7921C2.34397 40.9565 2.67331 27.7146 0.987998 7.0665Z"/>
  <path id="shape2" transform="matrix(0.999999960263572 0 0 0.999999960263572 21.2404961059356 10.454733377556)" fill="#ff6000" fill-rule="evenodd" stroke="#ff6000" stroke-width="1.44" stroke-linecap="square" stroke-linejoin="bevel" d="M0.13599 89.9838C2.08299 127.317 26.2045 103.56 31.5923 100.87C39.5677 96.8864 51.7979 79.9948 55.8388 64.206C57.8386 50.4806 48.8474 36.3529 48.7461 34.7144C45.1195 -23.9053 10.1132 1.86921 15.4378 37.7329C15.9644 41.2795 -1.71574 54.477 0.13599 89.9838Z"/>
  <path id="shape3" transform="matrix(0.999999960263572 0 0 0.999999960263572 1.65997599586325 53.526557706545)" fill="#ff711f" fill-rule="evenodd" stroke="#ff711f" stroke-width="1.44" stroke-linecap="square" stroke-linejoin="bevel" d="M28.3513 2.1924C65.4242 -7.82534 45.2755 19.215 41.2629 28.394C38.5879 34.5134 24.8336 42.1761 0 51.382C11.1659 20.679 20.6163 4.28251 28.3513 2.1924Z"/>
  <path id="shape4" transform="matrix(0.999999960263572 0 0 0.999999960263572 49.6788641502711 70.3469952976851)" fill="none" stroke="#ff6000" stroke-width="1.44" stroke-linecap="square" stroke-linejoin="bevel" d="M0 5.16076L11.5165 6.87524L21.6571 0"/>
  <ellipse id="shape5" transform="matrix(0.565998711196892 0 0 0.554419760862795 47.7209615506061 18.1815092123885)" rx="4.38686500723749" ry="4.84203496525382" cx="4.38686500723749" cy="4.84203496525382" fill="#080b14" fill-rule="evenodd" stroke="#000000" stroke-opacity="0" stroke-width="0" stroke-linecap="square" stroke-linejoin="bevel"/>
  <path id="shape6" transform="matrix(0.565998711196892 0 0 0.554419760862795 59.2499107153189 18.1321724629468)" sodipodi:type="arc" sodipodi:rx="4.01630632238088" sodipodi:ry="4.15556250829817" sodipodi:cx="4.01634717641612" sodipodi:cy="4.15565187957017" sodipodi:start="6.28318530717959" sodipodi:end="6.21711869313593" d="M8.02389 3.88131C7.87916 1.61796 6.00701 -0.107158 3.81742 0.00518969C1.62783 0.117538 -0.0701732 2.02584 0.00223195 4.2929C0.0746371 6.55996 1.8907 8.34811 4.08268 8.31065C6.27466 8.27318 8.03265 6.42395 8.03265 4.15565L4.01635 4.15565Z" fill="#080b14" fill-rule="evenodd" stroke="#000000" stroke-opacity="0" stroke-width="0" stroke-linecap="square" stroke-linejoin="bevel"/>
  <path id="shape7" transform="matrix(0.565998711196892 0 0 0.554419760862795 55.7306704313253 24.1335598361271)" fill="#ffe600" fill-rule="evenodd" stroke="#ffe600" stroke-width="1.44" stroke-linecap="square" stroke-linejoin="bevel" d="M19.5276 19.4903C16.3919 10.6492 14.0575 5.23923 12.5243 3.26028C10.2246 0.29186 6.00993 2.63482 3.38764 0C4.88063 3.41847 -4.43891 7.96815 2.76719 10.2638C3.29512 12.0911 19.1213 16.617 19.5276 19.4903Z"/>
  <path id="shape01" transform="matrix(-0.999999880846265 0 0 0.999999880846265 73.5893977067628 105.150049281426)" fill="#2e2e2e" stroke="#000000" stroke-opacity="0" stroke-width="0" stroke-linecap="square" stroke-linejoin="bevel" d="M15.5931 0C14.3491 0.0296314 10.778 13.441 9.60036 14.2842C7.83386 15.5491 8.51781 15.9872 4.89005 17.269C3.25276 17.8477 1.2454 21.6171 0 25.5201C2.81027 21.8326 4.35994 20.5033 6.33203 19.7555L4.93398 26.9988L10.1044 19.1019C14.9212 17.418 15.2374 19.1751 18.3346 21.7259C20.5004 23.4048 19.1963 21.7406 17.6804 18.7071C16.43 16.726 13.9066 14.9917 12.1451 13.7171L16.9329 1.20577C14.9547 0.81844 19.2809 1.65238 15.5931 0Z"/>
  <path id="shape011" transform="matrix(-0.999999888473483 0 0 0.999999888473483 61.6585970168563 104.271154577545)" fill="#2e2e2e" stroke="#000000" stroke-opacity="0" stroke-width="0" stroke-linecap="square" stroke-linejoin="bevel" d="M10.7182 0.499108C10.7246 1.02125 10.5908 15.528 9.41316 16.3713C7.64666 17.6362 8.51781 17.8355 4.89005 19.1174C3.25276 19.6961 1.2454 23.4654 0 27.3685C2.81027 23.681 4.35994 22.3517 6.33203 21.6038L4.93398 28.8471L10.1044 20.9502C14.9212 19.2663 13.1083 18.6709 15.3942 19.7523C17.1707 19.8986 15.9299 20.4808 16.2208 19.5624C14.9704 17.5813 13.4033 17.7496 11.6418 16.475L12.7819 0.22202C12.0988 -0.352783 11.7159 0.353126 10.7182 0.499108Z"/>
  <g id="group01" transform="matrix(1.02306616674816 0.0995919069173686 -0.0982750833848394 1.00953898722718 39.963828187803 -2.53136931860354e-07)" fill="none">
   <path id="shape8" transform="translate(5.08348313132956e-06, 7.19371765416031)" fill="#fff9f9" fill-rule="evenodd" stroke="#fff9f9" stroke-width="1.44" stroke-linecap="square" stroke-linejoin="bevel" d="M1.35165 7.08587C19.7858 14.454 29.3235 13.8416 31.891 11.6168C34.4585 9.39195 33.4654 5.34721 27.2716 2.75703C9.78832 -4.55434 -4.55736 4.72405 1.35165 7.08587Z"/>
   <path id="shape9" transform="translate(9.86931000938739, 4.54747350886464e-13)" fill="#fff9f9" fill-rule="evenodd" stroke="#fff9f9" stroke-width="1.44" stroke-linecap="square" stroke-linejoin="bevel" d="M0 11.6377L1.0487 0C5.80473 2.07816 9.35813 2.58182 11.7089 1.51099C14.0596 0.440166 14.8742 3.96149 14.1526 12.075C14.0725 12.1298 9.35492 11.9841 0 11.6377Z"/>
   <path id="shape10" transform="translate(9.88364144918873, 8.14827539587895)" fill="#080b14" fill-rule="evenodd" stroke="#080b14" stroke-width="1.44" stroke-linecap="square" stroke-linejoin="bevel" d="M14.8436 3.80563C11.6045 5.07273 6.6566 4.66097 0 2.57036L0.20986 0Z"/>
  </g>
 </g>
</svg>
